<?xml version="1.0" standalone="no"?><!DOCTYPE svg PUBLIC "-//W3C//DTD SVG 1.1//EN" "http://www.w3.org/Graphics/SVG/1.1/DTD/svg11.dtd"><svg t="1739637815981" class="icon" viewBox="0 0 1024 1024" version="1.1" xmlns="http://www.w3.org/2000/svg" p-id="33550" data-spm-anchor-id="a313x.search_index.0.i1.6f6b3a81JXRmhl" xmlns:xlink="http://www.w3.org/1999/xlink" width="48" height="48"><path d="M204.8 962.56c-1.92 0-3.2-0.64-5.12-1.92-3.2-2.56-3.84-7.68-1.28-10.88l226.56-273.92c2.56-3.2 7.68-3.84 10.88-1.28 3.2 2.56 3.84 7.68 1.28 10.88L210.56 959.36c-1.28 1.92-3.2 3.2-5.76 3.2z" fill="#211D1C" p-id="33551"></path><path d="M382.08 691.84c-1.92 0-4.48-0.64-5.76-1.92-3.84-3.2-4.48-8.96-1.28-13.44l1.28-1.28c3.2-3.84 8.96-4.48 13.44-1.28 3.84 3.2 4.48 8.96 1.28 13.44l-1.28 1.28c-1.92 1.92-4.48 3.2-7.68 3.2zM193.92 919.68c-1.92 0-4.48-0.64-5.76-1.92-3.84-3.2-4.48-8.96-1.28-13.44l1.92-1.92c3.2-3.84 8.96-4.48 13.44-1.28 3.84 3.2 4.48 8.96 1.28 13.44l-1.92 1.92c-2.56 1.92-5.12 3.2-7.68 3.2z m37.76-45.44c-1.92 0-4.48-0.64-5.76-1.92-3.84-3.2-4.48-8.96-1.28-13.44l1.92-1.92c3.2-3.84 8.96-4.48 13.44-1.28 3.84 3.2 4.48 8.96 1.28 13.44l-1.92 1.92c-2.56 1.92-5.12 3.2-7.68 3.2z m37.76-45.44c-1.92 0-4.48-0.64-5.76-1.92-3.84-3.2-4.48-8.96-1.28-13.44l1.92-1.92c3.2-3.84 8.96-4.48 13.44-1.28 3.84 3.2 4.48 8.96 1.28 13.44l-1.92 1.92c-2.56 1.92-5.12 3.2-7.68 3.2z m37.76-46.08c-1.92 0-4.48-0.64-5.76-1.92-3.84-3.2-4.48-8.96-1.28-13.44l1.92-1.92c3.2-3.84 8.96-4.48 13.44-1.28 3.84 3.2 4.48 8.96 1.28 13.44l-1.92 1.92c-2.56 1.92-5.12 3.2-7.68 3.2z m37.76-45.44c-1.92 0-4.48-0.64-5.76-1.92-3.84-3.2-4.48-8.96-1.28-13.44l1.92-1.92c3.2-3.84 8.96-4.48 13.44-1.28 3.84 3.2 4.48 8.96 1.28 13.44l-1.92 1.92c-2.56 1.92-5.12 3.2-7.68 3.2zM156.8 964.48c-1.92 0-4.48-0.64-5.76-1.92-3.84-3.2-4.48-8.96-1.28-13.44l1.28-1.28c3.2-3.84 8.96-4.48 13.44-1.28 3.84 3.2 4.48 8.96 1.28 13.44l-1.28 1.28c-1.92 1.92-4.48 3.2-7.68 3.2z" fill="#0000cd" p-id="33552" data-spm-anchor-id="a313x.search_index.0.i6.6f6b3a81JXRmhl" class="selected"></path><path d="M808.96 961.92c-1.92 0-4.48-0.64-5.76-2.56L576.64 686.08c-2.56-3.2-1.92-7.68 1.28-10.88 3.2-2.56 7.68-1.92 10.88 1.28l226.56 273.28c2.56 3.2 1.92 7.68-1.28 10.88-1.28 0.64-3.2 1.28-5.12 1.28z" fill="#211D1C" p-id="33553"></path><path d="M636.8 691.2c-2.56 0-5.12-1.28-7.04-3.2l-1.28-1.28c-3.2-3.84-2.56-9.6 1.28-13.44 3.84-3.2 9.6-2.56 13.44 1.28l1.28 1.28c3.2 3.84 2.56 9.6-1.28 13.44-2.56 1.28-4.48 1.92-6.4 1.92z m188.8 227.84c-2.56 0-5.12-1.28-7.04-3.2l-1.92-1.92c-3.2-3.84-2.56-9.6 1.28-13.44 3.84-3.2 9.6-2.56 13.44 1.28l1.92 1.92c3.2 3.84 2.56 9.6-1.28 13.44-2.56 1.28-4.48 1.92-6.4 1.92z m-37.76-45.44c-2.56 0-5.12-1.28-7.04-3.2l-1.92-1.92c-3.2-3.84-2.56-9.6 1.28-13.44 3.84-3.2 9.6-2.56 13.44 1.28l1.92 1.92c3.2 3.84 2.56 9.6-1.28 13.44-2.56 1.28-4.48 1.92-6.4 1.92z m-37.76-45.44c-2.56 0-5.12-1.28-7.04-3.2l-1.92-1.92c-3.2-3.84-2.56-9.6 1.28-13.44 3.84-3.2 9.6-2.56 13.44 1.28l1.92 1.92c3.2 3.84 2.56 9.6-1.28 13.44-2.56 1.28-4.48 1.92-6.4 1.92z m-37.76-45.44c-2.56 0-5.12-1.28-7.04-3.2l-1.92-1.92c-3.2-3.84-2.56-9.6 1.28-13.44 3.84-3.2 9.6-2.56 13.44 1.28l1.92 1.92c3.2 3.84 2.56 9.6-1.28 13.44-2.56 1.28-4.48 1.92-6.4 1.92z m-37.76-45.44c-2.56 0-5.12-1.28-7.04-3.2l-1.92-1.92c-3.2-3.84-2.56-9.6 1.28-13.44 3.84-3.2 9.6-2.56 13.44 1.28l1.92 1.92c3.2 3.84 2.56 9.6-1.28 13.44-2.56 0.64-4.48 1.92-6.4 1.92z m187.52 226.56c-2.56 0-5.12-1.28-7.04-3.2l-1.28-1.28c-3.2-3.84-2.56-9.6 1.28-13.44 3.84-3.2 9.6-2.56 13.44 1.28l1.28 1.28c3.2 3.84 2.56 9.6-1.28 13.44-1.92 1.28-3.84 1.92-6.4 1.92z m-355.2-273.92c-4.48 0-7.68-3.2-7.68-7.68v-1.28c0-4.48 3.2-7.68 7.68-7.68s7.68 3.2 7.68 7.68v1.28c0 4.48-3.84 7.68-7.68 7.68z m0 252.8c-4.48 0-7.68-3.2-7.68-7.68v-3.2c0-4.48 3.2-7.68 7.68-7.68s7.68 3.2 7.68 7.68v3.2c0 3.84-3.2 7.68-7.68 7.68z m0-21.12c-4.48 0-7.68-3.2-7.68-7.68v-3.2c0-4.48 3.2-7.68 7.68-7.68s7.68 3.2 7.68 7.68v3.2c0 4.48-3.2 7.68-7.68 7.68z m0-21.12c-4.48 0-7.68-3.2-7.68-7.68v-3.2c0-4.48 3.2-7.68 7.68-7.68s7.68 3.2 7.68 7.68v3.2c0 4.48-3.2 7.68-7.68 7.68z m0-21.12c-4.48 0-7.68-3.2-7.68-7.68v-3.2c0-4.48 3.2-7.68 7.68-7.68s7.68 3.2 7.68 7.68v3.2c0 4.48-3.2 7.68-7.68 7.68z m0-21.12c-4.48 0-7.68-3.2-7.68-7.68v-3.2c0-4.48 3.2-7.68 7.68-7.68s7.68 3.2 7.68 7.68v3.2c0 4.48-3.2 7.68-7.68 7.68z m0-21.12c-4.48 0-7.68-3.2-7.68-7.68v-3.2c0-4.48 3.2-7.68 7.68-7.68s7.68 3.2 7.68 7.68v3.2c0 4.48-3.2 7.68-7.68 7.68z m0-20.48c-4.48 0-7.68-3.2-7.68-7.68v-3.2c0-4.48 3.2-7.68 7.68-7.68s7.68 3.2 7.68 7.68v3.2c0 3.84-3.2 7.68-7.68 7.68z m0-21.12c-4.48 0-7.68-3.2-7.68-7.68v-3.2c0-4.48 3.2-7.68 7.68-7.68s7.68 3.2 7.68 7.68v3.2c0 3.84-3.2 7.68-7.68 7.68z m0-21.12c-4.48 0-7.68-3.2-7.68-7.68v-3.2c0-4.48 3.2-7.68 7.68-7.68s7.68 3.2 7.68 7.68v3.2c0 4.48-3.84 7.68-7.68 7.68z m0-21.12c-4.48 0-7.68-3.2-7.68-7.68v-3.2c0-4.48 3.2-7.68 7.68-7.68s7.68 3.2 7.68 7.68v3.2c0 4.48-3.2 7.68-7.68 7.68z m0-21.12c-4.48 0-7.68-3.2-7.68-7.68v-3.2c0-4.48 3.2-7.68 7.68-7.68s7.68 3.2 7.68 7.68v3.2c0 4.48-3.84 7.68-7.68 7.68z m0-21.12c-4.48 0-7.68-3.2-7.68-7.68v-3.2c0-4.48 3.2-7.68 7.68-7.68s7.68 3.2 7.68 7.68v3.2c0 4.48-3.84 7.68-7.68 7.68z m0 250.88c-4.48 0-7.68-3.2-7.68-7.68v-1.28c0-4.48 3.2-7.68 7.68-7.68s7.68 3.2 7.68 7.68v1.28c0 4.48-3.2 7.68-7.68 7.68z" fill="#0000cd" p-id="33554" data-spm-anchor-id="a313x.search_index.0.i7.6f6b3a81JXRmhl" class="selected"></path><path d="M53.76 656c-1.92 0-3.84-0.64-5.12-1.92-1.28-1.28-1.92-3.2-1.92-5.12v-48c0-2.56 1.28-5.12 3.84-6.4 2.56-1.28 5.12-1.28 7.68 0L89.6 614.4l29.44-43.52c1.92-2.56 5.12-3.84 8.32-3.2 3.2 0.64 5.12 3.84 5.76 7.04l2.56 42.24h17.92l16-25.6c1.28-1.92 3.2-3.2 5.12-3.2 1.92-0.64 4.48 0 5.76 1.28l14.72 11.52 17.92-29.44c1.28-2.56 3.84-3.84 6.4-3.84s5.12 1.28 6.4 3.84l19.84 33.28h16.64v-14.72c0-4.48 3.2-7.68 7.68-7.68h23.04c4.48 0 7.68 3.2 7.68 7.68v14.72h10.24v-37.12c0-4.48 3.2-7.68 7.68-7.68h24.96c4.48 0 7.68 3.2 7.68 7.68v46.08h16V608c0-4.48 3.2-7.68 7.68-7.68h20.48c4.48 0 7.68 3.2 7.68 7.68v23.68h21.12v-47.36c0-4.48 3.2-7.68 7.68-7.68h24.32c4.48 0 7.68 3.2 7.68 7.68v39.04h7.04V608c0-4.48 3.2-7.68 7.68-7.68H512c4.48 0 7.68 3.2 7.68 7.68v0.64c1.28-0.64 2.56-1.28 3.84-1.28h44.8c4.48 0 7.68 3.2 7.68 7.68v5.76h24.32v-53.76c0-4.48 3.2-7.68 7.68-7.68h33.28c4.48 0 7.68 3.2 7.68 7.68v16.64h8.32c4.48 0 7.68 3.2 7.68 7.68v25.6h6.4v-42.88c0-4.48 3.2-7.68 7.68-7.68h30.08c4.48 0 7.68 3.2 7.68 7.68v14.08c1.28-1.92 3.84-3.2 6.4-3.2h26.24c4.48 0 7.68 3.2 7.68 7.68v7.68h25.6l16.64-16.64c1.92-1.92 4.48-2.56 6.4-1.92 2.56 0.64 4.48 1.92 5.76 4.48l6.4 14.72h10.24l16.64-21.76c1.28-1.92 4.48-3.2 7.04-3.2 2.56 0 5.12 1.92 5.76 4.48l10.88 23.04 12.8 8.96 8.96-24.32c0.64-2.56 3.2-4.48 5.76-5.12 2.56-0.64 5.12 0.64 7.04 2.56l14.08 15.36h20.48c2.56 0 5.12 1.28 6.4 3.84l22.4 39.68c1.28 2.56 1.28 5.12 0 7.68-1.28 2.56-3.84 3.84-6.4 3.84H53.76z m7.68-41.6v26.88h326.4v-24.96h-5.76v4.48c0 4.48-3.2 7.68-7.68 7.68h-30.72c-4.48 0-7.68-3.2-7.68-7.68v-46.08h-10.24v37.12c0 4.48-3.2 7.68-7.68 7.68h-24.96c-4.48 0-7.68-3.2-7.68-7.68v-14.72h-7.68v14.72c0 4.48-3.2 7.68-7.68 7.68h-29.44c-2.56 0-5.12-1.28-6.4-3.84l-15.36-25.6-15.36 25.6c-1.28 1.92-3.2 3.2-5.12 3.84-1.92 0.64-4.48 0-5.76-1.28l-14.72-11.52-13.44 22.4c-1.28 2.56-3.84 3.84-6.4 3.84h-29.44c-3.84 0-7.04-3.2-7.68-7.04l-1.28-26.88-20.48 30.72c-2.56 3.2-7.04 4.48-10.24 1.92L61.44 614.4z m377.6-22.4v48.64L947.2 640l-14.08-24.96h-19.84c-1.92 0-4.48-0.64-5.76-2.56l-7.68-8.32-7.68 21.12c-0.64 1.92-2.56 3.84-4.48 4.48-1.92 0.64-4.48 0.64-6.4-0.64l-22.4-15.36c-1.28-0.64-1.92-1.92-2.56-3.2l-6.4-13.44-11.52 14.72c-1.28 1.92-3.84 3.2-5.76 3.2h-19.2c-3.2 0-5.76-1.92-7.04-4.48l-3.84-8.96-11.52 11.52c-1.28 1.28-3.2 1.92-5.12 1.92H748.8c-4.48 0-7.68-3.2-7.68-7.68v-7.68h-10.88V608c0 4.48-3.2 7.68-7.68 7.68h-14.08c-4.48 0-7.68-3.2-7.68-7.68v-26.24h-14.72v42.88c0 4.48-3.2 7.68-7.68 7.68h-21.76c-4.48 0-7.68-3.2-7.68-7.68v-25.6h-0.64v25.6c0 4.48-3.2 7.68-7.68 7.68s-7.68-3.2-7.68-7.68v-49.92h-17.92v53.76c0 4.48-3.2 7.68-7.68 7.68h-39.04c-4.48 0-7.68-3.2-7.68-7.68v-5.76H531.2v4.48c0 4.48-3.2 7.68-7.68 7.68H512c-4.48 0-7.68-3.2-7.68-7.68v-11.52h-19.2v16c0 4.48-3.2 7.68-7.68 7.68h-22.4c-4.48 0-7.68-3.2-7.68-7.68v-39.04h-8.32z m68.48-182.4c-76.16 0-138.24-62.08-138.24-138.24 0-76.16 62.08-138.24 138.24-138.88 76.16 0 138.24 62.08 138.24 138.24 0 37.12-14.08 71.68-40.32 97.92-25.6 26.24-60.8 40.96-97.92 40.96z m0-261.76c-67.84 0-123.52 55.68-123.52 123.52s55.68 122.88 123.52 122.88c32.64 0 64-12.8 87.04-36.48 23.04-23.04 35.84-54.4 35.84-87.04 0.64-67.84-54.4-122.88-122.88-122.88z" fill="#211D1C" p-id="33555"></path><path d="M407.68 245.76c-2.56 0-4.48-1.28-6.4-3.2-1.28-1.92-1.92-4.48-1.28-7.04 3.84-12.16 9.6-24.32 17.28-34.56 1.28-1.92 3.84-3.2 6.4-3.2h167.68c2.56 0 4.48 1.28 6.4 3.2 7.68 10.24 13.44 22.4 17.28 34.56 0.64 2.56 0 5.12-1.28 7.04s-3.84 3.2-6.4 3.2H407.68z m20.48-32.64c-3.84 5.12-7.04 10.88-9.6 17.28h178.56c-2.56-5.76-5.76-11.52-9.6-17.28H428.16z" fill="#0000cd" p-id="33556" data-spm-anchor-id="a313x.search_index.0.i2.6f6b3a81JXRmhl" class=""></path><path d="M507.52 245.76c-4.48 0-7.68-3.2-7.68-7.68v-32c0-4.48 3.2-7.68 7.68-7.68s7.68 3.2 7.68 7.68v32c0 3.84-3.2 7.68-7.68 7.68z m52.48-0.64c-4.48 0-7.68-3.2-7.68-7.68v-32c0-4.48 3.2-7.68 7.68-7.68s7.68 3.2 7.68 7.68v32c0 4.48-3.2 7.68-7.68 7.68z m-104.32 0.64c-4.48 0-7.68-3.2-7.68-7.68v-32c0-4.48 3.2-7.68 7.68-7.68s7.68 3.2 7.68 7.68v32c0 3.84-3.84 7.68-7.68 7.68z" fill="#0000cd" p-id="33557" data-spm-anchor-id="a313x.search_index.0.i11.6f6b3a81JXRmhl" class="selected"></path><path d="M626.56 332.8c-4.48 0-7.68-3.2-7.68-7.68s3.2-7.68 7.68-7.68H982.4c1.92 0 4.48-0.64 5.76-2.56 1.28-1.28 2.56-3.84 2.56-5.76s-0.64-4.48-2.56-5.76c-1.28-1.28-3.84-2.56-5.76-2.56H636.16c-4.48 0-7.68-3.2-7.68-7.68s3.2-7.68 7.68-7.68H982.4c6.4 0 12.16 2.56 16.64 7.04s7.04 10.24 7.04 16.64-2.56 12.16-7.04 16.64-10.24 7.04-16.64 7.04H626.56z m-593.28 0.64c-12.8 0-23.68-10.24-23.68-23.68 0-6.4 2.56-12.16 7.04-16.64s10.24-7.04 16.64-7.04h345.6c4.48 0 7.68 3.2 7.68 7.68s-3.2 7.68-7.68 7.68H33.28c-1.92 0-4.48 0.64-5.76 2.56-1.28 1.28-2.56 3.84-2.56 5.76 0 4.48 3.84 8.32 8.32 8.32h355.84c4.48 0 7.68 3.2 7.68 7.68s-3.2 7.68-7.68 7.68H33.28z m458.24-184.96c-4.48 0-7.68-3.2-7.68-7.68V65.28c0-12.8 10.24-23.68 23.68-23.68 12.8 0 23.68 10.24 23.68 23.68v75.52c0 4.48-3.2 7.68-7.68 7.68s-7.68-3.2-7.68-7.68V65.28c0-3.84-3.84-7.68-8.32-7.68s-8.32 3.84-8.32 8.32v74.88c0 4.48-3.2 7.68-7.68 7.68z m137.6 80.64c-4.48 0-7.68-3.2-7.68-7.68s3.2-7.68 7.68-7.68h27.52c4.48 0 8.32-3.84 8.32-8.32 0-1.92-0.64-4.48-2.56-5.76-1.28-1.28-3.84-2.56-5.76-2.56h-46.08c-4.48 0-7.68-3.2-7.68-7.68s3.2-7.68 7.68-7.68h46.08c12.8 0 23.68 10.24 23.68 23.68 0 12.8-10.24 23.68-23.68 23.68h-27.52z m-270.08 0c-6.4 0-12.16-2.56-16.64-7.04s-7.04-10.24-7.04-16.64c0-12.8 10.24-23.68 23.68-23.68h46.08c4.48 0 7.68 3.2 7.68 7.68s-3.2 7.68-7.68 7.68h-46.08c-4.48 0-8.32 3.84-8.32 8.32 0 1.92 0.64 4.48 2.56 5.76 1.28 1.28 3.84 2.56 5.76 2.56h27.52c4.48 0 7.68 3.2 7.68 7.68s-3.2 7.68-7.68 7.68h-27.52z" fill="#211D1C" p-id="33558"></path><path d="M314.88 420.48c-28.16 0-51.2-23.04-51.2-51.2s23.04-51.2 51.2-51.2 51.2 23.04 51.2 51.2-23.04 51.2-51.2 51.2z m0-87.04c-9.6 0-18.56 3.84-25.6 10.88s-10.24 16-10.24 25.6c0 19.84 16 35.84 35.84 35.84 19.84 0 35.84-16 35.84-35.84 0-9.6-3.84-18.56-10.88-25.6-6.4-7.04-15.36-10.88-24.96-10.88z m192.64-19.84c-6.4 0-12.16-5.12-12.16-12.16 0-3.2 1.28-6.4 3.2-8.32 2.56-2.56 5.12-3.2 8.32-3.2s6.4 1.28 8.32 3.2c2.56 2.56 3.2 5.12 3.2 8.32 1.28 7.04-3.84 12.16-10.88 12.16z m0-14.72c-1.92 0-3.2 1.28-3.2 3.2 0 0.64 0.64 1.92 0.64 2.56 0.64 0.64 1.28 0.64 2.56 0.64 0.64 0 1.92-0.64 2.56-0.64 0.64-0.64 0.64-1.28 0.64-2.56 0-1.92-1.28-3.2-3.2-3.2zM700.8 419.84c-13.44 0-26.24-5.12-36.48-14.72-9.6-9.6-14.72-22.4-14.72-36.48 0-28.16 23.04-51.2 51.2-51.2 13.44 0 26.24 5.12 36.48 14.72 9.6 9.6 14.72 22.4 14.72 36.48 0 13.44-5.12 26.24-14.72 36.48-9.6 9.6-23.04 14.72-36.48 14.72z m0-87.04c-9.6 0-18.56 3.84-25.6 10.88s-10.24 16-10.24 25.6 3.84 18.56 10.88 25.6 16 10.24 25.6 10.24 18.56-3.84 25.6-10.88 10.24-16 10.24-25.6-3.84-18.56-10.88-25.6c-7.04-6.4-16-10.24-25.6-10.24z" fill="#211D1C" p-id="33559"></path><path d="M700.8 398.08h-3.84c-3.84-0.64-7.04-4.48-6.4-8.32 0.64-3.84 4.48-7.04 8.32-6.4h1.92c4.48 0 7.68 3.2 7.68 7.68 0 3.84-3.2 7.04-7.68 7.04z m21.76-18.56h-1.28c-3.84-0.64-7.04-4.48-6.4-8.32v-1.92c0-4.48 3.2-7.68 7.68-7.68s7.68 3.2 7.68 7.68h-7.68 7.68v4.48c-0.64 3.2-3.84 5.76-7.68 5.76z m-43.52-3.2c-4.48 0-7.68-3.2-7.68-7.68v-3.84c0.64-3.84 4.48-7.04 8.32-6.4 3.84 0.64 7.04 4.48 6.4 8.32v1.92c0.64 4.48-3.2 7.68-7.04 7.68zM704 355.2h-3.2c-4.48 0-7.68-3.2-7.68-7.68s3.2-7.68 7.68-7.68h3.84c3.84 0.64 7.04 4.48 6.4 8.32-0.64 3.84-3.84 7.04-7.04 7.04z m-389.12 43.52h-3.84c-3.84-0.64-7.04-4.48-6.4-8.32 0.64-3.84 4.48-7.04 8.32-6.4h1.92c4.48 0 7.68 3.2 7.68 7.68s-3.2 7.04-7.68 7.04z m21.76-18.56h-1.28c-3.84-0.64-7.04-4.48-6.4-8.32v-1.92c0-4.48 3.2-7.68 7.68-7.68s7.68 3.2 7.68 7.68h-7.68 7.68v4.48c-0.64 2.56-3.84 5.76-7.68 5.76z m-43.52-3.2c-4.48 0-7.68-3.2-7.68-7.68V364.8c0.64-3.84 4.48-7.04 8.32-6.4 3.84 0.64 7.04 4.48 6.4 8.32v1.92c0.64 5.12-3.2 8.32-7.04 8.32z m24.32-21.76h-3.2c-4.48 0-7.68-3.2-7.68-7.68s3.2-7.68 7.68-7.68v7.68-7.68h3.84c3.84 0.64 7.04 4.48 6.4 8.32 0 4.48-3.2 7.04-7.04 7.04z" fill="#0000cd" p-id="33560" data-spm-anchor-id="a313x.search_index.0.i3.6f6b3a81JXRmhl" class="selected"></path><path d="M197.12 420.48c-28.16 0-51.2-23.04-51.2-51.2 0-13.44 5.12-26.24 14.72-36.48 9.6-9.6 22.4-14.72 36.48-14.72 13.44 0 26.24 5.12 36.48 14.72 9.6 9.6 14.72 22.4 14.72 36.48 0 28.16-23.04 51.2-51.2 51.2z m0-87.04s-0.64 0 0 0c-9.6 0-18.56 3.84-25.6 10.88s-10.24 16-10.24 25.6 3.84 18.56 10.88 25.6 16 10.24 25.6 10.24 18.56-3.84 25.6-10.88 10.24-16 10.24-25.6-3.84-18.56-10.88-25.6c-7.04-6.4-16-10.24-25.6-10.24z" fill="#211D1C" p-id="33561"></path><path d="M209.92 394.24c-2.56 0-4.48-1.28-5.76-3.2-2.56-3.2-1.92-8.32 1.28-10.88 0.64-0.64 1.28-0.64 1.28-1.28 0 0 5.12-5.76 10.88 0s0 10.88 0 10.88c-1.28 1.28-1.92 1.92-3.2 2.56-1.28 1.28-3.2 1.92-4.48 1.92z m-28.16-1.92c-1.92 0-3.84-0.64-5.76-2.56-0.64-0.64-1.92-1.92-2.56-3.2-2.56-3.2-1.92-8.32 1.28-10.88 3.2-2.56 8.32-1.92 10.88 1.28 0.64 0.64 0.64 1.28 1.28 1.28l0.64 0.64c2.56 3.2 2.56 7.68-1.28 10.88-1.28 1.92-3.2 2.56-4.48 2.56z m32.64-28.8c-2.56 0-4.48-1.28-5.76-3.2-0.64-0.64-0.64-1.28-1.28-1.28-3.2-3.2-3.2-7.68 0-10.88s7.68-3.2 10.88 0l-5.12 5.12 5.12-5.12c1.28 1.28 1.92 1.92 2.56 3.2 2.56 3.2 1.92 8.32-1.28 10.88-1.92 1.28-3.84 1.28-5.12 1.28z m-27.52-4.48c-7.68 7.68-18.56-2.56-10.88-10.88 0.64-1.28 1.92-1.92 3.2-2.56 3.2-2.56 8.32-1.92 10.88 1.28 2.56 3.2 1.92 8.32-1.28 10.88-1.28 0.64-1.28 1.28-1.92 1.28z" fill="#0000cd" p-id="33562" data-spm-anchor-id="a313x.search_index.0.i5.6f6b3a81JXRmhl" class="selected"></path><path d="M818.56 419.84c-28.16 0-51.2-23.04-51.2-51.2s23.04-51.2 51.2-51.2 51.2 23.04 51.2 51.2-22.4 51.2-51.2 51.2z m0-87.04c-19.84 0-35.84 16-35.84 35.84 0 9.6 3.84 18.56 10.88 25.6s16 10.24 25.6 10.24c19.84 0 35.84-16 35.84-35.84 0-19.84-16.64-35.84-36.48-35.84z" fill="#211D1C" p-id="33563"></path><path d="M832 393.6c-2.56 0-4.48-1.28-5.76-3.2-2.56-3.2-1.92-8.32 1.28-10.88 0.64-0.64 1.28-0.64 1.28-1.28 3.2-3.2 7.68-3.2 10.88 0s3.2 7.68 0 10.88c-1.28 1.28-1.92 1.92-3.2 2.56-1.28 1.92-3.2 1.92-4.48 1.92z m-28.8-1.92c-1.92 0-3.84-0.64-5.12-1.92-1.28-1.28-1.92-1.92-2.56-3.2-2.56-3.2-1.92-8.32 1.28-10.88 3.2-2.56 8.32-1.92 10.88 1.28 0.64 0.64 0.64 1.28 1.28 1.28 3.2 3.2 3.2 7.68 0 10.88-1.92 1.92-3.84 2.56-5.76 2.56z m33.28-28.16c-2.56 0-4.48-1.28-5.76-3.2-0.64-0.64-0.64-1.28-1.28-1.28-9.6-8.96 1.28-19.84 10.24-10.88 1.28 1.28 1.92 1.92 2.56 3.2 2.56 3.2 1.92 8.32-1.28 10.88-1.28 0.64-3.2 1.28-4.48 1.28z m-33.28-2.56c-1.92 0-3.84-0.64-5.12-1.92-3.2-2.56-3.2-7.68-0.64-10.24l0.64-0.64 2.56-2.56c3.2-2.56 8.32-1.92 10.88 1.28 2.56 3.2 1.92 8.32-1.28 10.88-0.64 0.64-1.28 0.64-1.28 1.28-1.92 1.28-3.84 1.92-5.76 1.92z" fill="#0000cd" p-id="33564" data-spm-anchor-id="a313x.search_index.0.i4.6f6b3a81JXRmhl" class="selected"></path><path d="M508.16 455.04c-4.48 0-7.68-3.2-7.68-7.68v-45.44c0-4.48 3.2-7.68 7.68-7.68s7.68 3.2 7.68 7.68v45.44c-0.64 3.84-3.84 7.68-7.68 7.68z m52.48-23.68c-4.48 0-7.68-3.2-7.68-7.68V390.4c0-4.48 3.2-7.68 7.68-7.68s7.68 3.2 7.68 7.68v33.28c-0.64 4.48-3.84 7.68-7.68 7.68z m-104.96 0c-4.48 0-7.68-3.2-7.68-7.68V390.4c0-4.48 3.2-7.68 7.68-7.68s7.68 3.2 7.68 7.68v33.28c0 4.48-3.2 7.68-7.68 7.68z" fill="#211D1C" p-id="33565"></path></svg>