<?xml version="1.0" standalone="no"?><!DOCTYPE svg PUBLIC "-//W3C//DTD SVG 1.1//EN" "http://www.w3.org/Graphics/SVG/1.1/DTD/svg11.dtd"><svg t="1739803991090" class="icon" viewBox="0 0 1024 1024" version="1.1" xmlns="http://www.w3.org/2000/svg" p-id="38379" xmlns:xlink="http://www.w3.org/1999/xlink" width="48" height="48"><path d="M953.250909 751.336727c1.861818 4.561455-13.358545 64.698182-44.869818 66.187637-31.418182 1.489455-353.093818 11.124364-348.904727 8.238545 25.320727-17.966545 63.115636-45.149091 150.528-149.736727 23.970909-37.422545 30.254545-45.521455 31.976727-47.290182 1.815273-2.048 10.938182-9.495273 40.448 5.771636 29.416727 15.36 161.792 95.232 170.821818 116.829091zM358.446545 451.584c-2.932364-0.744727-9.448727 2.234182-10.472727 12.753455-0.977455 10.333091 53.527273 99.886545 60.974546 100.631272 7.447273 0.744727 34.024727 0 42.496-5.957818 8.564364-5.864727 36.491636-75.403636 35.979636-77.451636-0.465455-2.513455-103.470545-24.017455-128.930909-29.975273zM833.024 208.430545c33.419636-9.402182-55.482182-61.812364-152.576 45.242182-97.792 108.264727-216.762182 329.634909-210.757818 339.409455 6.004364 9.774545 74.938182-23.831273 79.406545-28.206546 4.561455-4.561455 201.774545-333.172364 283.927273-356.445091z" fill="#4169e1" p-id="38380" data-spm-anchor-id="a313x.search_index.0.i17.7cf23a814lyQi5" class="selected"></path><path d="M900.794182 217.925818c9.216 9.588364 83.409455 81.92-151.412364 377.018182-139.822545 171.380364-244.503273 281.320727-316.043636 289.512727-71.400727 8.285091-87.365818 8.936727-87.365818 8.936728s354.490182-525.963636 429.102545-613.469091c74.612364-87.598545 104.215273-84.154182 125.719273-61.998546zM536.017455 594.944a46275.025455 46275.025455 0 0 1-141.870546 216.994909s-283.694545 23.924364-311.714909 24.482909c-27.927273 0.372364-3.072-49.058909 14.615273-59.205818 40.075636-22.714182 443.717818-189.812364 438.923636-182.272zM255.534545 480.442182s-16.942545 40.215273-14.42909 44.683636c2.466909 4.654545 214.202182 67.490909 211.176727 73.355637-2.978909 5.864727-164.445091 76.613818-169.006546 72.890181-4.421818-3.723636-77.079273-29.137455-84.154181-31.278545-6.888727-2.234182-80.989091 34.257455-84.619637 31.278545-3.490909-2.978909 25.460364-87.226182 30.487273-93.277091 5.073455-5.957818 110.08-106.682182 110.545454-97.652363z" fill="#4169e1" p-id="38381" data-spm-anchor-id="a313x.search_index.0.i16.7cf23a814lyQi5" class="selected"></path></svg>