<?xml version="1.0" standalone="no"?><!DOCTYPE svg PUBLIC "-//W3C//DTD SVG 1.1//EN" "http://www.w3.org/Graphics/SVG/1.1/DTD/svg11.dtd"><svg t="1739328841634" class="icon" viewBox="0 0 1024 1024" version="1.1" xmlns="http://www.w3.org/2000/svg" p-id="20140" xmlns:xlink="http://www.w3.org/1999/xlink" width="200" height="200"><path d="M525.653333 111.274667a34.688 34.688 0 0 1 23.893334-8.874667c187.050667 5.461333 343.381333 141.312 372.053333 322.901333v3.413334a31.189333 31.189333 0 0 1-8.192 23.893333 31.104 31.104 0 0 1-22.528 10.922667l-314.709333 20.48a40.618667 40.618667 0 0 1-28.672-9.557334 36.266667 36.266667 0 0 1-12.288-26.624l-21.162667-309.248v-4.778666a31.786667 31.786667 0 0 1 11.605333-22.528z" fill="#7A7AF9" p-id="20141"></path><path d="M503.808 565.248l272.384-17.749333 2.048 0.682666c11.605333 0 22.528 4.778667 30.72 12.970667 8.192 8.192 12.288 19.114667 12.288 30.72-10.922667 156.330667-125.610667 287.402667-281.941333 320.853333-156.330667 33.450667-316.074667-37.546667-393.216-175.445333a330.282667 330.282667 0 0 1-41.642667-128.341333 266.24 266.24 0 0 1-2.730667-40.277334c1.365333-165.888 119.466667-309.930667 285.354667-344.746666 19.797333-4.096 40.277333 6.144 49.152 24.576 2.048 3.413333 4.096 6.826667 5.461333 10.24 3.413333 47.786667 6.144 95.573333 9.557334 142.677333 2.730667 37.546667 4.778667 74.410667 7.509333 111.957333 0 8.874667 1.365333 17.749333 4.096 25.941334 6.144 16.384 23.210667 26.624 40.96 25.941333z" fill="#CCDAFF" p-id="20142"></path></svg>