<?xml version="1.0" standalone="no"?><!DOCTYPE svg PUBLIC "-//W3C//DTD SVG 1.1//EN" "http://www.w3.org/Graphics/SVG/1.1/DTD/svg11.dtd"><svg t="1738981396201" class="icon" viewBox="0 0 1024 1024" version="1.1" xmlns="http://www.w3.org/2000/svg" p-id="1543" xmlns:xlink="http://www.w3.org/1999/xlink" width="200" height="200"><path d="M0 0m159.502707 0l677.886503 0q159.502707 0 159.502707 159.502707l0 677.886503q0 159.502707-159.502707 159.502707l-677.886503 0q-159.502707 0-159.502707-159.502707l0-677.886503q0-159.502707 159.502707-159.502707Z" fill="#F5F4FF" p-id="1544"></path><path d="M217.262624 725.537937a74.766894 74.766894 0 0 0 73.311432 89.421205h415.743805a74.766894 74.766894 0 0 0 73.311432-89.421205l-44.860137-224.300681a74.766894 74.766894 0 0 0-73.311431-60.112583H335.434192a74.766894 74.766894 0 0 0-73.311431 60.112583l-44.860137 224.300681z" fill="#CDC5FE" p-id="1545"></path><path d="M314.459586 718.479942l264.375737 0a20.894855 20.894855 0 0 1 0 41.749834l-264.375737 0a20.894855 20.894855 0 0 1 0-41.769772z" fill="#FFFFFF" p-id="1546"></path><path d="M314.459586 718.479942l264.375737 0a20.894855 20.894855 0 0 1 0 41.749834l-264.375737 0a20.894855 20.894855 0 0 1 0-41.769772z m0 9.13153q-4.864833 0-8.29414 3.429308-3.449246 3.449246-3.449247 8.314079 0 4.844895 3.449247 8.294141 3.429308 3.429308 8.29414 3.429308l264.375737 0q4.864833 0 8.314078-3.429308 3.429308-3.449246 3.429308-8.294141 0-4.864833-3.429308-8.314079-3.449246-3.429308-8.294141-3.429308l-264.395674 0z" fill="#FFFFFF" p-id="1547"></path><path d="M323.790495 650.113095l156.372466 0a20.894855 20.894855 0 0 1 0 41.769771l-156.372466 0a20.874917 20.874917 0 1 1 0-41.769771z" fill="#FFFFFF" p-id="1548"></path><path d="M323.790495 650.113095l156.372466 0a20.894855 20.894855 0 0 1 0 41.769771l-156.372466 0a20.874917 20.874917 0 1 1 0-41.769771z m0 9.13153q-4.864833 0-8.294141 3.449246-3.449246 3.429308-3.449246 8.29414t3.449246 8.294141q3.429308 3.449246 8.294141 3.449246l156.372466 0q4.844895 0 8.29414-3.449246 3.429308-3.429308 3.429309-8.294141t-3.429309-8.29414q-3.449246-3.449246-8.29414-3.449246l-156.372466 0z" fill="#FFFFFF" p-id="1549"></path><path d="M530.545878 389.306231c33.056936-13.856798 56.54371-47.930563 56.54371-87.726488 0-52.077634-40.075055-94.425602-89.361392-94.425603-49.246461 0-89.341454 42.347969-89.341453 94.425603 0 39.795925 23.486774 73.869691 56.543709 87.726488-73.530748 16.069898-128.997814 85.014943-128.997814 167.418029 0 20.037528 13.318476 26.676828 24.005158 32.00023l0.598135 0.27913c43.105606 16.069898 105.431289 20.336595 135.477611 20.336595 32.757868 0 96.877956-5.602533 139.465179-21.134108 15.950271-6.479797 24.064971-17.06679 24.064971-31.501785 0-82.383148-55.467066-151.328193-128.997814-167.398091z" fill="#6C57EF" p-id="1550"></path><path d="M638.987781 596.859128q29.906758-12.122206 29.906757-40.134868 0-64.498907-38.91866-114.343503-31.103028-39.835801-75.524532-55.905699 14.255554-10.467365 24.583355-26.178381 17.405733-26.477449 17.405733-58.716934 0-42.766663-28.750363-73.171867-28.969679-30.584644-69.961875-30.584644-40.972258 0-69.921999 30.604582-28.770301 30.385266-28.770301 73.151929 0 32.239485 17.405733 58.716934 10.3278 15.711017 24.583355 26.178381-44.441442 16.069898-75.524532 55.905699-38.91866 49.844596-38.91866 114.343503 0 25.819501 29.169057 40.374123l0.239255 0.099689 1.056705 0.45857 0.239254 0.099689q56.144953 20.93473 138.727479 20.93473 83.140786 0 142.675171-21.732243l0.139565-0.039876 0.159503-0.059814z m-23.726028-142.974238q34.931093 44.780385 34.931093 102.83937 0 15.352136-18.083619 22.729136-56.364269 20.535973-136.095685 20.535973-79.033591 0-131.98849-19.658709l-0.139565-0.079751q-18.602003-9.370784-18.602003-23.526649 0-58.058985 34.951031-102.83937 34.352895-44.022747 86.709659-55.447129l28.909865-6.320294-27.314838-11.424382q-50.801612-21.293611-50.801612-79.113342 0-35.32985 23.626338-60.311961 23.446898-24.762795 56.364269-24.762795 32.937309 0 56.384207 24.762795 23.646276 24.982111 23.646276 60.311961 0 57.819731-50.841487 79.113342l-27.314839 11.424382 28.929803 6.320294q52.356763 11.424381 86.729597 55.427191z" fill="#FFFFFF" p-id="1551"></path><path d="M422.941365 381.351034a116.835733 116.835733 0 0 1-34.492461-83.479729c0-40.39406 19.9179-75.823599 49.864534-96.140257-0.199378-0.27913-0.45857-0.438632-0.657949-0.677886-0.219316-0.239254-0.358881-0.558259-0.598135-0.777576A86.570094 86.570094 0 0 0 381.091842 179.440545c-49.266399 0-89.361391 42.347969-89.361391 94.405665 0 39.815863 23.486774 73.889629 56.563647 87.726488-73.550686 16.069898-128.997814 85.034881-128.997814 167.418029 0 14.434995 8.094762 25.021987 24.264349 31.561598 23.965282 8.752711 53.672661 13.796984 74.906459 16.528468-0.877265-7.576379-1.335835-15.212571-1.335835-22.848763 0-76.960056 43.424612-143.173617 105.79017-172.880996z m225.616578-19.758398c33.096812-13.856798 56.563647-47.930563 56.563648-87.726489 0-52.077634-40.075055-94.425602-89.361392-94.425602a86.649845 86.649845 0 0 0-56.683274 21.433176l-2.372603 2.053598c30.006447 21.193922 48.010315 56.822839 47.990377 94.943986a116.835733 116.835733 0 0 1-34.472523 83.479729c62.34562 29.707379 105.79017 95.901002 105.790171 172.861058 0 7.915322-0.518384 15.691079-1.395649 23.347209l0.438632-0.059814c21.871809-2.67167 53.174215-7.775757 78.455394-17.026914 15.950271-6.45986 24.064971-17.046852 24.064971-31.461908 0-82.403086-55.467066-151.368069-128.997814-167.418029z" fill="#6C57EF" p-id="1552"></path><path d="M326.482103 554.23203v-0.019938q0-54.191045 28.112352-99.190745 27.314839-43.763555 72.374353-65.236608l12.022517-5.722159-9.490412-9.370784q-31.701163-31.222655-31.701162-76.820491 0-57.381099 45.757338-88.404375l4.107195-2.791298v-7.795695l-1.595027-2.372602q-0.598135-0.857327-1.395649-1.674779-0.7377-0.957016-1.575089-1.674778-27.11546-23.008265-61.966801-23.068079-40.992196 0-69.961875 30.604582-28.750363 30.385266-28.750363 73.171866 0 32.219547 17.405733 58.716934 10.3278 15.711017 24.563417 26.178382-44.421504 16.04996-75.524532 55.905699-38.878785 49.844596-38.878785 114.343503 0 28.012663 30.106136 40.21462l0.139565 0.059813 0.159503 0.059814q30.026385 10.965811 76.900242 17.006976l11.863014 1.515275-1.395649-11.863013q-1.256084-10.846184-1.276021-21.77212z m430.537681 14.913503q29.906758-12.122206 29.906757-40.134868 0-64.498907-38.898722-114.343503-31.103028-39.835801-75.54447-55.905699 14.255554-10.467365 24.583355-26.178382 17.405733-26.477449 17.405733-58.716934 0-42.766663-28.770301-73.171866-28.949741-30.584644-69.941937-30.584644-35.489352 0-62.804191 23.726027l-11.384505 9.849292 9.749603 6.878555q44.062623 31.103028 44.022747 87.307794 0 45.597836-31.681225 76.820491l-9.510349 9.370784 12.042454 5.722159q45.059515 21.473052 72.374353 65.236608 28.112352 44.999701 28.112352 99.210683 0 10.686681-1.355773 22.250628l-1.355773 11.763324 12.201957-1.455462q49.047082-6.021227 80.548867-17.545298l0.159503-0.039875 0.139565-0.059814z m-418.295848-124.013354q-30.923587 49.545528-30.923588 109.099851 0 6.001289 0.358881 11.962703-36.865063-5.502843-61.209163-14.355244-18.282998-7.476689-18.282998-22.848762 0-58.039047 34.931093-102.819433 34.352895-44.022747 86.729596-55.467066l28.909866-6.300357-27.314839-11.444319q-50.82155-21.293611-50.821549-79.113342 0-35.32985 23.646276-60.292024 23.42696-24.762795 56.344331-24.762795 23.068079 0.039876 41.96915 12.620652-43.942996 35.728606-43.942996 96.459262 0 46.833982 28.630736 80.808059-42.268217 23.586463-69.024796 66.432877z m394.56982-18.960885q34.931093 44.780385 34.931093 102.839371 0 15.352136-18.063682 22.729135-25.91919 9.450535-65.196731 15.03313 0.398757-6.380108 0.398757-12.560838 0-59.534385-30.943525-109.099851-26.736641-42.866352-68.984921-66.432877 28.610798-33.974077 28.610798-80.808059 0.039876-59.414758-42.268217-95.103489 19.638771-13.956487 43.982871-13.956487 32.937309 0 56.384207 24.742857 23.626338 24.982111 23.626338 60.311961 0 57.819731-50.821549 79.113343l-27.314839 11.424381 28.929803 6.320295q52.356763 11.424381 86.729597 55.427191z" fill="#FFFFFF" p-id="1553"></path></svg>