<?xml version="1.0" standalone="no"?><!DOCTYPE svg PUBLIC "-//W3C//DTD SVG 1.1//EN" "http://www.w3.org/Graphics/SVG/1.1/DTD/svg11.dtd"><svg t="1738981371985" class="icon" viewBox="0 0 1024 1024" version="1.1" xmlns="http://www.w3.org/2000/svg" p-id="1068" xmlns:xlink="http://www.w3.org/1999/xlink" width="200" height="200"><path d="M0 0m136.54016 0l750.91968 0q136.54016 0 136.54016 136.54016l0 750.91968q0 136.54016-136.54016 136.54016l-750.91968 0q-136.54016 0-136.54016-136.54016l0-750.91968q0-136.54016 136.54016-136.54016Z" fill="#E5F0F9" p-id="1069"></path><path d="M264.54016 486.44096c0-51.22048 0-76.84096 14.25408-95.70304 14.25408-18.8416 38.93248-25.88672 88.30976-39.95648l86.6304-24.69888c28.93824-8.25344 43.4176-12.36992 58.2656-12.36992 14.848 0 29.32736 4.11648 58.2656 12.36992l86.6304 24.69888c49.3568 14.06976 74.05568 21.0944 88.30976 39.95648 14.25408 18.86208 14.25408 44.48256 14.25408 95.70304v69.9392c0 99.7376 0 149.62688-31.04768 180.6336-31.06816 30.98624-81.05984 30.98624-181.0432 30.98624h-70.71744c-100.00384 0-149.99552 0-181.0432-30.98624-31.06816-31.00672-31.06816-80.896-31.06816-180.6336v-69.9392z" fill="#7FC0FB" p-id="1070"></path><path d="M352.91136 238.94016c-29.2864 0-53.0432 32.68608-53.0432 73.0112v159.76448c103.87456 78.60224 158.53568 154.80832 212.13184 155.19744 54.74304 0.4096 108.3392-76.65664 212.11136-155.19744v-159.76448c0-40.3456-23.7568-73.0112-53.0432-73.0112H352.93184z" fill="#BDDDFB" p-id="1071"></path><path d="M299.88864 311.95136c0-40.3456 23.7568-73.0112 53.0432-73.0112h318.1568c29.2864 0 53.0432 32.68608 53.0432 73.0112v159.76448c-37.376 28.28288-68.23936 56.38144-95.00672 80.73216-47.53408 43.25376-82.10432 74.71104-117.12512 74.46528-53.59616-0.38912-108.25728-76.5952-212.11136-155.19744v-159.76448z m10.4448 154.60352q36.6592 28.20096 91.66848 77.80352 44.11392 39.79264 62.5664 52.69504 27.5456 19.27168 47.5136 19.41504 20.33664 0.14336 47.8208-19.0464 18.41152-12.84096 62.19776-52.71552 54.84544-49.88928 91.56608-78.15168v-154.624q0-26.8288-13.5168-45.4656-12.41088-17.08032-29.0816-17.08032H352.93184q-16.62976 0-29.04064 17.05984-13.53728 18.6368-13.53728 45.50656v154.60352z" fill="#FFFFFF" p-id="1072"></path><path d="M423.58784 344.73984h176.8448a17.63328 17.63328 0 0 1 0 35.28704h-176.8448a17.63328 17.63328 0 0 1 0-35.28704z" fill="#FFFFFF" p-id="1073"></path><path d="M423.58784 344.73984h176.8448a17.63328 17.63328 0 0 1 0 35.28704h-176.8448a17.63328 17.63328 0 0 1 0-35.28704z m0 8.35584q-3.85024 0-6.5536 2.72384-2.74432 2.72384-2.74432 6.5536 0 3.85024 2.72384 6.5536 2.72384 2.74432 6.5536 2.74432h176.86528q3.82976 0 6.5536-2.72384t2.72384-6.5536q0-3.85024-2.72384-6.57408t-6.5536-2.72384h-176.8448z" fill="#FFFFFF" p-id="1074"></path><path d="M423.58784 450.56h176.8448a17.63328 17.63328 0 0 1 0 35.26656h-176.8448a17.63328 17.63328 0 0 1 0-35.26656z" fill="#FFFFFF" p-id="1075"></path><path d="M423.58784 450.56h176.8448a17.63328 17.63328 0 0 1 0 35.26656h-176.8448a17.63328 17.63328 0 0 1 0-35.26656z m0 8.35584q-3.85024 0-6.5536 2.72384-2.74432 2.70336-2.74432 6.5536t2.72384 6.5536q2.72384 2.72384 6.5536 2.72384h176.86528q3.82976 0 6.5536-2.70336 2.72384-2.72384 2.72384-6.5536 0-3.87072-2.72384-6.57408-2.72384-2.72384-6.5536-2.72384h-176.8448z" fill="#FFFFFF" p-id="1076"></path><path d="M756.5312 423.58784c2.00704 11.5712 2.64192 25.57952 2.84672 43.15136l-236.21632 191.488a17.7152 17.7152 0 0 1-22.30272 0l-236.21632-191.488c0.2048-17.57184 0.8192-31.58016 2.82624-43.15136L512 621.83424l244.5312-198.2464z" fill="#FFFFFF" p-id="1077"></path></svg>