<?xml version="1.0" standalone="no"?><!DOCTYPE svg PUBLIC "-//W3C//DTD SVG 1.1//EN" "http://www.w3.org/Graphics/SVG/1.1/DTD/svg11.dtd"><svg t="1738981385363" class="icon" viewBox="0 0 1024 1024" version="1.1" xmlns="http://www.w3.org/2000/svg" p-id="1385" xmlns:xlink="http://www.w3.org/1999/xlink" width="200" height="200"><path d="M0 0m163.84 0l696.32 0q163.84 0 163.84 163.84l0 696.32q0 163.84-163.84 163.84l-696.32 0q-163.84 0-163.84-163.84l0-696.32q0-163.84 163.84-163.84Z" fill="#E1FFF5" p-id="1386"></path><path d="M296.96 310.62016m122.88 0l215.04 0q122.88 0 122.88 122.88l0 249.18016q0 122.88-122.88 122.88l-215.04 0q-122.88 0-122.88-122.88l0-249.18016q0-122.88 122.88-122.88Z" fill="#75EDA1" p-id="1387"></path><path d="M245.76 617.82016v-256A136.54016 136.54016 0 0 1 382.30016 225.28h187.71968a136.54016 136.54016 0 0 1 136.54016 136.54016v256a136.54016 136.54016 0 0 1-136.54016 136.51968h-187.71968A136.54016 136.54016 0 0 1 245.76 617.82016z" fill="#BAF7D0" p-id="1388"></path><path d="M581.46816 438.84544a65.82272 65.82272 0 1 1 0-131.64544 65.82272 65.82272 0 0 1 0 131.64544z m0-21.93408a43.88864 43.88864 0 1 0 0-87.77728 43.88864 43.88864 0 0 0 0 87.77728zM373.02272 658.26816a65.82272 65.82272 0 1 1 0-131.64544 65.82272 65.82272 0 0 1 0 131.64544z m0-21.93408a43.88864 43.88864 0 1 0 0-87.77728 43.88864 43.88864 0 0 0 0 87.77728z" fill="#FFFFFF" p-id="1389"></path><path d="M581.46816 472.6784v-0.9216h-199.43424a43.88864 43.88864 0 0 1 1.9456-87.7568h142.6432v-21.95456h-142.6432a65.82272 65.82272 0 0 0-10.9568 130.7648v0.90112l0.02048-0.02048h9.27744l1.65888 0.02048h189.1328a43.88864 43.88864 0 0 1-2.62144 87.73632h-142.62272v21.97504h142.62272a65.82272 65.82272 0 0 0 10.97728-130.7648z" fill="#FFFFFF" p-id="1390"></path><path d="M548.5568 362.04544h65.82272v21.93408h-65.82272v-21.93408z" fill="#FFFFFF" p-id="1391"></path><path d="M570.49088 340.11136h21.93408v65.82272h-21.9136v-65.82272z" fill="#FFFFFF" p-id="1392"></path><path d="M245.76 617.82016v-256A136.54016 136.54016 0 0 1 382.30016 225.28h187.71968a136.54016 136.54016 0 0 1 136.54016 136.54016v256a136.54016 136.54016 0 0 1-136.54016 136.51968h-187.71968A136.54016 136.54016 0 0 1 245.76 617.82016z m10.4448 0q0 52.224 36.92544 89.14944t89.16992 36.92544h187.71968q52.224 0 89.16992-36.92544 36.92544-36.92544 36.92544-89.14944v-256q0-52.224-36.92544-89.16992-36.92544-36.92544-89.16992-36.92544h-187.71968q-52.224 0-89.16992 36.92544-36.92544 36.92544-36.92544 89.16992v256z" fill="#FFFFFF" p-id="1393"></path></svg>