<?xml version="1.0" standalone="no"?><!DOCTYPE svg PUBLIC "-//W3C//DTD SVG 1.1//EN" "http://www.w3.org/Graphics/SVG/1.1/DTD/svg11.dtd"><svg t="1739258278768" class="icon" viewBox="0 0 1024 1024" version="1.1" xmlns="http://www.w3.org/2000/svg" p-id="89939" xmlns:xlink="http://www.w3.org/1999/xlink" width="200" height="200"><path d="M813.531429 270.153143l-250.404572-145.554286a109.897143 109.897143 0 0 0-110.518857 0l-250.441143 145.554286a111.396571 111.396571 0 0 0-55.222857 96.329143v291.035428c0 39.753143 21.065143 76.507429 55.222857 96.329143l250.441143 145.554286a109.897143 109.897143 0 0 0 110.482286 0l250.404571-145.554286a111.36 111.36 0 0 0 55.259429-96.329143v-291.035428a111.396571 111.396571 0 0 0-55.222857-96.329143zM748.617143 416.182857l-209.700572 146.651429v198.144a31.451429 31.451429 0 0 1-31.305142 31.524571 31.451429 31.451429 0 0 1-31.341715-31.524571v-198.070857l-209.188571-146.285715a31.561143 31.561143 0 0 1 15.652571-58.843428c5.485714 0 10.825143 1.462857 15.579429 4.242285l209.152 146.249143 209.846857-146.761143a31.451429 31.451429 0 0 1 15.652571-4.242285 31.049143 31.049143 0 0 1 35.620572 3.291428 31.670857 31.670857 0 0 1 9.252571 34.816 31.268571 31.268571 0 0 1-29.220571 20.809143z" fill="#7786fe" p-id="89940"></path></svg>