<?xml version="1.0" standalone="no"?><!DOCTYPE svg PUBLIC "-//W3C//DTD SVG 1.1//EN" "http://www.w3.org/Graphics/SVG/1.1/DTD/svg11.dtd"><svg t="1739637895091" class="icon" viewBox="0 0 2047 1024" version="1.1" xmlns="http://www.w3.org/2000/svg" p-id="34802" xmlns:xlink="http://www.w3.org/1999/xlink" width="95.953125" height="48"><path d="M1772.752377 676.884914c-100.344474 30.717696-1121.537218 329.703272-1121.537218 329.703272S368.4417 1102.495659 159.220058 844.125704l232.08926-97.614012c40.444967 13.822963 77.988818 12.628386 127.990401-3.413078l263.83088-66.384354L387.213626 83.350762S307.176962-45.492908 585.342766 17.137061c0 0 502.916948 389.944088 593.534152 461.618712 0 0 46.588506 26.792657 132.086093 0L1706.538676 347.010988s267.926572-82.93778 329.703273 65.872392c64.84847 156.148289-163.486405 233.113183-263.660226 263.83088z m-1648.687015 96.760743C19.966503 666.986989 0 604.186366 0 604.186366s21.502387-130.550209 199.323717 0c51.878776 38.055812 106.999975 64.336508 141.984018 85.668242l-217.242373 83.791049z" fill="#ffffff" p-id="34803"></path></svg>