<?xml version="1.0" standalone="no"?><!DOCTYPE svg PUBLIC "-//W3C//DTD SVG 1.1//EN" "http://www.w3.org/Graphics/SVG/1.1/DTD/svg11.dtd"><svg t="1739177109122" class="icon" viewBox="0 0 1024 1024" version="1.1" xmlns="http://www.w3.org/2000/svg" p-id="7840" xmlns:xlink="http://www.w3.org/1999/xlink" width="200" height="200"><path d="M467.7 600.8c-8.5 0-16.1 0-24.6 2.1 9.5 5.2 19 7.3 28.5 8.3 6.7 1 13.3 0 19-2.1-0.1-3-3.9-8.3-22.9-8.3zM317.5 419.3h-5.6c-2 0-5.9 0-7.7 0.9-7.6 15.3-2 31.5 11.5 45.9 11.1-15.2 11.7-31.5 1.8-46.8zM162.4 722.1c18.5-4 33-12 43.5-22.6-19.3 4.7-35.8 12.9-47.4 23.4l3.9-0.8zM308.7 559.4c0 0.1 0 0.1 0 0zM308.7 559.5l-1 2-1-1.1c-8.9 23.1-18.7 46.1-29.6 68.1l1.9-1v2c21.9-8 44.4-14.7 67.1-20l-0.9-1h3c-14.8-14.9-28.1-31.3-39.5-49zM644.8 443.8h219.4v59.3H644.8zM644.8 663.2h219.4v59.3H644.8zM644.8 544.6h219.4v59.3H644.8z" fill="#D15956" p-id="7841"></path><path d="M579.5 325.2h-510v474.5h510.1V325.2z m-65.3 290.9c0 35.5-34.9 35.5-52.7 35.5-28.7-1.9-56.1-12.9-78-31.2-43.2 9.4-84.3 22.8-125.4 39.5-32.7 57.2-63.3 86.4-89.6 86.4-5.3 0-11.6-1-15.8-4.2-11.1-5.1-18.1-16.1-17.9-28.1 0-9.4 2.1-35.4 102.2-78 22.7-41.2 41.4-84.4 55.9-129-12.6-24.9-40-86.3-21.1-117.5 6.3-11.5 18.9-17.7 32.7-16.7 10.7 0.1 20.9 5.1 27.5 13.6 13.7 18.7 12.6 58.2-5.3 116.5 16.9 31.2 39 59.3 65.3 83.2 22.2-4.2 44.2-7.3 66.4-7.3 49.5 0.9 56.9 23.9 55.8 37.3z" fill="#D15956" p-id="7842"></path><path d="M907.1 226.1l-116.3-116c-25.3-25.2-75.3-45.9-111.2-45.9H288.9c-35.9 0-65.1 29.2-65.1 64.9v131h52.1v-131c0-7.1 6-13 13.1-13h390.8c3.8 0 8.3 0.5 13 1.4v206.4h207.1c0.9 4.7 1.4 30.3 1.4 34.3v554.4c0 7.1-6 13-13.1 13H288.9c-7.1 0-13.1-6-13.1-13v-43.5h-52.1v43.5c0 35.7 29.3 64.9 65.1 64.9h599.3c35.9 0 65.1-29.2 65.1-64.9V358.3c0-35.8-20.7-106.9-46.1-132.2zM769.3 254V129.5c3.3 2.3 6.2 4.7 8.5 7.1l108.9 108.8c2.4 2.4 4.8 5.3 7.1 8.6H769.3z" fill="#D15956" p-id="7843"></path></svg>