<?xml version="1.0" standalone="no"?><!DOCTYPE svg PUBLIC "-//W3C//DTD SVG 1.1//EN" "http://www.w3.org/Graphics/SVG/1.1/DTD/svg11.dtd"><svg t="1739804809892" class="icon" viewBox="0 0 1024 1024" version="1.1" xmlns="http://www.w3.org/2000/svg" p-id="43248" xmlns:xlink="http://www.w3.org/1999/xlink" width="48" height="48"><path d="M579.584 129.0752l72.8064 147.5072c13.056 26.4704 38.2976 44.8 67.5328 49.0496l162.7648 23.6544c73.5744 10.7008 102.9632 101.12 49.7152 152.9856l-117.8112 114.7904a89.82528 89.82528 0 0 0-25.8048 79.4112l27.8016 162.0992c12.544 73.2672-64.3584 129.1776-130.1504 94.5664l-145.6128-76.544c-26.112-13.7216-57.344-13.7216-83.5072 0l-145.6128 76.544C245.9136 987.7504 168.96 931.84 181.5552 858.5728l27.8016-162.0992c4.9664-29.0816-4.6592-58.7776-25.8048-79.4112L65.8944 502.3232c-53.248-51.9168-23.8592-142.336 49.7152-152.9856l162.7648-23.6544c29.2352-4.2496 54.4768-22.5792 67.5328-49.0496l72.8064-147.5072c32.9216-66.7136 127.9488-66.7136 160.8704-0.0512z" fill="#CCDAFF" p-id="43249"></path><path d="M532.8896 367.104l30.5152 61.8496a37.63712 37.63712 0 0 0 28.3136 20.5824l68.2496 9.9328c30.8736 4.5056 43.1616 42.3936 20.8384 64.1536l-49.408 48.128a37.6064 37.6064 0 0 0-10.8032 33.28l11.6736 67.9936c5.2736 30.72-26.9824 54.1696-54.5792 39.68l-61.0304-32.1024a37.49888 37.49888 0 0 0-35.0208 0l-61.0304 32.1024c-27.5968 14.4896-59.8528-8.9088-54.5792-39.68l11.6736-67.9936c2.0992-12.1856-1.9456-24.6784-10.8032-33.28l-49.408-48.128c-22.3232-21.76-9.984-59.6992 20.8384-64.1536l68.2496-9.9328a37.63712 37.63712 0 0 0 28.3136-20.5824L465.408 367.104c13.824-27.9552 53.6576-27.9552 67.4816 0z" fill="#4169e1" p-id="43250" data-spm-anchor-id="a313x.search_index.0.i19.7cf23a814lyQi5" class=""></path></svg>