<?xml version="1.0" standalone="no"?><!DOCTYPE svg PUBLIC "-//W3C//DTD SVG 1.1//EN" "http://www.w3.org/Graphics/SVG/1.1/DTD/svg11.dtd"><svg t="1739803144505" class="icon" viewBox="0 0 1024 1024" version="1.1" xmlns="http://www.w3.org/2000/svg" p-id="30432" xmlns:xlink="http://www.w3.org/1999/xlink" width="48" height="48"><path d="M870.592 893.696h-89.6v16.576c0 27.52-20.16 49.728-44.8 49.728-24.768 0-44.8-22.336-44.8-49.728v-16.576H332.8v16.576c0 27.52-20.096 49.728-44.8 49.728-24.704 0-44.8-22.336-44.8-49.728v-16.576H153.6c-33.024 0-89.664-62.848-89.664-99.584V429.12c0-36.608 26.688-66.432 59.712-66.432h59.712c33.024 0 59.712 29.696 59.712 66.432v265.472h537.728V429.12c0-36.608 26.688-66.432 59.712-66.432h59.712c33.024 0 59.712 29.696 59.712 66.432v365.12c0.192 36.608-56.384 99.456-89.408 99.456zM810.88 296.32c-49.536 0-89.6 44.608-89.6 99.584v232.32H302.912v-232.32c0-54.976-40.128-99.584-89.6-99.584-10.496 0-20.48-3.776-29.952 0V163.648C183.424 108.608 223.552 64 273.088 64h477.952c49.536 0 89.6 44.608 89.6 99.584v132.8c-9.344-3.84-19.2-0.064-29.76-0.064z" fill="#dbdbdb" p-id="30433"></path></svg>