<svg width="22" height="22" viewBox="0 0 22 22" fill="none" xmlns="http://www.w3.org/2000/svg">
<path fill-rule="evenodd" clip-rule="evenodd" d="M6.4375 3C4.53902 3 3 4.53902 3 6.4375V16.0625C3 17.961 4.53902 19.5 6.4375 19.5H16.0625C17.961 19.5 19.5 17.961 19.5 16.0625V6.4375C19.5 4.53902 17.961 3 16.0625 3H6.4375ZM7.125 6.78125C6.65038 6.78125 6.26562 7.16601 6.26562 7.64062C6.26562 8.11524 6.65038 8.5 7.125 8.5H15.375C15.8496 8.5 16.2344 8.11524 16.2344 7.64062C16.2344 7.16601 15.8496 6.78125 15.375 6.78125H7.125ZM7.125 10.5625C6.65038 10.5625 6.26562 10.9473 6.26562 11.4219C6.26562 11.8965 6.65038 12.2812 7.125 12.2812H9.875C10.3496 12.2812 10.7344 11.8965 10.7344 11.4219C10.7344 10.9473 10.3496 10.5625 9.875 10.5625H7.125Z" fill="url(#paint0_linear_307_25622)"/>
<defs>
<linearGradient id="paint0_linear_307_25622" x1="11.25" y1="3" x2="11.25" y2="19.5" gradientUnits="userSpaceOnUse">
<stop stop-color="#2574FC"/>
<stop offset="1" stop-color="#2574FC" stop-opacity="0.733333"/>
<stop offset="1" stop-color="#2574FC" stop-opacity="0.5"/>
</linearGradient>
</defs>
</svg>
